<svg width="26" height="26" viewBox="0 0 26 26" fill="none" xmlns="http://www.w3.org/2000/svg">
<circle cx="12.5605" cy="12.5605" r="12.5605" fill="white"/>
<path d="M21.4816 6.90265C20.8456 7.17701 20.1535 7.37446 19.4406 7.45136C20.1807 7.01164 20.735 6.31694 20.9994 5.49761C20.3049 5.91079 19.544 6.20051 18.7505 6.35394C18.4189 5.99941 18.0178 5.71697 17.5723 5.52423C17.1267 5.33149 16.6462 5.23258 16.1608 5.23365C14.1966 5.23365 12.617 6.82575 12.617 8.77949C12.617 9.05385 12.6503 9.32821 12.7043 9.59217C9.76329 9.43836 7.14028 8.03333 5.39646 5.88213C5.07872 6.42485 4.91221 7.04279 4.91426 7.67168C4.91426 8.90212 5.53987 9.98708 6.49388 10.6252C5.93167 10.603 5.38262 10.4485 4.89139 10.1741V10.2178C4.89139 11.9408 6.10937 13.3687 7.73264 13.6971C7.42785 13.7763 7.11432 13.8168 6.79941 13.8177C6.56871 13.8177 6.35047 13.7948 6.13015 13.7636C6.5791 15.1687 7.88645 16.1892 9.44321 16.2224C8.22523 17.1764 6.69965 17.7376 5.04312 17.7376C4.7459 17.7376 4.47155 17.7272 4.1868 17.694C5.75811 18.702 7.62248 19.284 9.63027 19.284C16.1483 19.284 19.7149 13.8842 19.7149 9.19726C19.7149 9.04346 19.7149 8.88965 19.7045 8.73585C20.3946 8.23078 20.9994 7.60517 21.4816 6.90265Z" fill="#1C9CEA"/>
</svg>
