<svg width="26" height="26" viewBox="0 0 26 26" fill="none" xmlns="http://www.w3.org/2000/svg">
<circle cx="12.5605" cy="12.5605" r="12.5605" fill="white"/>
<path d="M18.829 8.62225C16.6309 5.23353 12.1432 4.22607 8.66285 6.33257C5.27414 8.43907 4.17509 13.0184 6.37318 16.4071L6.55635 16.6819L5.82366 19.4295L8.57127 18.6968L8.84603 18.88C10.0367 19.5211 11.3189 19.8874 12.6011 19.8874C13.9749 19.8874 15.3487 19.5211 16.5393 18.7884C19.928 16.5903 20.9355 12.1026 18.829 8.62225V8.62225ZM16.9057 15.6744C16.5393 16.224 16.0814 16.5903 15.4403 16.6819C15.0739 16.6819 14.616 16.8651 12.7843 16.1324C11.2273 15.3997 9.94507 14.2091 9.0292 12.8352C8.47968 12.1941 8.20492 11.3699 8.11333 10.5456C8.11333 9.81288 8.38809 9.17177 8.84603 8.71383C9.0292 8.53066 9.21237 8.43907 9.39555 8.43907H9.85348C10.0367 8.43907 10.2198 8.43907 10.3114 8.80542C10.4946 9.26336 10.9525 10.3624 10.9525 10.454C11.0441 10.5456 11.0441 10.7287 10.9525 10.8203C11.0441 11.0035 10.9525 11.1867 10.8609 11.2783C10.7694 11.3699 10.6778 11.553 10.5862 11.6446C10.403 11.7362 10.3114 11.9194 10.403 12.1026C10.7694 12.6521 11.2273 13.2016 11.6852 13.6595C12.2347 14.1175 12.7843 14.4838 13.4254 14.7586C13.6085 14.8502 13.7917 14.8502 13.8833 14.667C13.9749 14.4838 14.4328 14.0259 14.616 13.8427C14.7992 13.6595 14.8908 13.6595 15.0739 13.7511L16.5393 14.4838C16.7225 14.5754 16.9057 14.667 16.9973 14.7586C17.0889 15.0333 17.0889 15.3997 16.9057 15.6744V15.6744Z" fill="#4ECB71"/>
</svg>
