<svg width="26" height="26" viewBox="0 0 26 26" fill="none" xmlns="http://www.w3.org/2000/svg">
<circle cx="12.5605" cy="12.5605" r="12.5605" fill="white"/>
<path d="M20.9341 17.1958V17.4227C20.8964 17.7003 20.7023 17.8497 20.4735 17.967C20.0329 18.1931 19.5564 18.3052 19.0733 18.3912C18.7367 18.4513 18.7347 18.4444 18.652 18.7756C18.6233 18.8905 18.5988 19.007 18.5632 19.1202C18.4751 19.4003 18.2737 19.5343 17.9838 19.5099C17.8201 19.4961 17.6596 19.4718 17.4987 19.4442C17.1129 19.3777 16.7195 19.3653 16.3302 19.4072C15.9233 19.4499 15.5786 19.6419 15.2457 19.8651C14.8408 20.1367 14.4576 20.4456 13.9999 20.6323C12.8617 21.0971 11.7592 21.0289 10.6984 20.4013C10.3381 20.1886 10.0065 19.9325 9.65192 19.7113C9.34569 19.5197 9.01529 19.4271 8.65378 19.3938C8.19565 19.35 7.75308 19.4308 7.31173 19.5087C6.88881 19.5822 6.662 19.4409 6.54777 19.0269C6.50929 18.8864 6.47367 18.7448 6.4401 18.6031C6.4139 18.4919 6.34962 18.4448 6.23949 18.4253C5.77276 18.3441 5.30931 18.2471 4.87001 18.0632C4.70265 17.9977 4.54593 17.9081 4.40492 17.7973C4.21577 17.6435 4.17483 17.4405 4.18957 17.2161C4.20431 16.9916 4.35333 16.8966 4.54576 16.8507C4.79959 16.789 5.05302 16.729 5.2958 16.6303C6.00653 16.3344 6.58053 15.8688 7.05258 15.2709C7.34155 14.9123 7.58493 14.5198 7.77723 14.1022C7.941 13.7393 7.86771 13.5242 7.51439 13.3419C7.20856 13.1849 6.86834 13.1154 6.55596 12.973C6.32956 12.8699 6.12403 12.7444 5.97132 12.5451C5.87665 12.4285 5.82827 12.2816 5.83528 12.1321C5.84229 11.9825 5.90422 11.8407 6.0094 11.7333C6.14334 11.5862 6.31961 11.4834 6.51437 11.4388C6.70914 11.3942 6.91301 11.41 7.09843 11.484C7.31214 11.5652 7.5234 11.6537 7.75758 11.6553C7.97129 11.6553 7.98849 11.6342 7.96761 11.4228C7.94673 11.2113 7.94591 10.9917 7.93445 10.7769C7.89883 10.1206 7.87467 9.46378 7.95819 8.8074C8.04008 8.16767 8.29596 7.60425 8.67302 7.09035C9.18675 6.37759 9.90655 5.83618 10.7373 5.5377C11.2035 5.36931 11.6923 5.27068 12.1878 5.24503C12.8212 5.20931 13.4496 5.25396 14.0633 5.43095C15.2694 5.77882 16.1693 6.50014 16.774 7.59248C17.0696 8.12667 17.1769 8.6978 17.217 9.29735C17.2661 10.028 17.1851 10.7505 17.1527 11.4763C17.1474 11.5957 17.1916 11.6489 17.3075 11.6505C17.422 11.6491 17.5354 11.6284 17.6428 11.5892C17.7718 11.5457 17.8979 11.4946 18.0264 11.4508C18.3425 11.3432 18.6405 11.3951 18.9206 11.56C19.3934 11.8384 19.4303 12.3718 19.0057 12.716C18.8052 12.8747 18.5777 12.9966 18.3339 13.0761C18.0972 13.1573 17.8553 13.2238 17.6313 13.3375C17.2694 13.5206 17.1896 13.741 17.3636 14.1067C17.8221 15.0704 18.4628 15.8765 19.4078 16.4184C19.7188 16.5978 20.0561 16.7281 20.4075 16.8045C20.4555 16.815 20.5025 16.828 20.5504 16.8373C20.7551 16.8775 20.9025 16.9754 20.9341 17.1958Z" fill="#FFFC00"/>
</svg>
