<svg width="26" height="26" viewBox="0 0 26 26" fill="none" xmlns="http://www.w3.org/2000/svg">
<circle cx="12.5605" cy="12.5605" r="12.5605" fill="white"/>
<path d="M20.5847 9.12548C20.4894 8.7772 20.3025 8.45959 20.0427 8.20444C19.7829 7.94929 19.4593 7.76554 19.1044 7.67159C17.7978 7.3269 12.5606 7.3269 12.5606 7.3269C12.5606 7.3269 7.32328 7.3269 6.01676 7.66975C5.66167 7.7634 5.33794 7.94705 5.0781 8.20225C4.81826 8.45745 4.63144 8.77522 4.53642 9.12364C4.18689 10.407 4.18689 13.0838 4.18689 13.0838C4.18689 13.0838 4.18689 15.7606 4.53642 17.0421C4.72894 17.7498 5.29715 18.3072 6.01676 18.496C7.32328 18.8407 12.5606 18.8407 12.5606 18.8407C12.5606 18.8407 17.7978 18.8407 19.1044 18.496C19.8258 18.3072 20.3922 17.7498 20.5847 17.0421C20.9342 15.7606 20.9342 13.0838 20.9342 13.0838C20.9342 13.0838 20.9342 10.407 20.5847 9.12548ZM10.897 15.5406V10.627L15.2334 13.0655L10.897 15.5406Z" fill="#F70000"/>
</svg>
