<svg width="26" height="26" viewBox="0 0 26 26" fill="none" xmlns="http://www.w3.org/2000/svg">
<circle cx="12.5605" cy="12.5605" r="12.5605" fill="white"/>
<g clip-path="url(#clip0_1_52)">
<path d="M5.23358 12.5607C5.23358 15.561 7.03773 18.1385 9.6194 19.2717C9.59879 18.7601 9.61574 18.1459 9.74693 17.5892C9.88781 16.9944 10.6897 13.5967 10.6897 13.5967C10.6897 13.5967 10.4556 13.1288 10.4556 12.4374C10.4556 11.3516 11.085 10.5407 11.8687 10.5407C12.5352 10.5407 12.8572 11.0412 12.8572 11.6407C12.8572 12.3106 12.4299 13.3128 12.2101 14.2409C12.0265 15.0182 12.5998 15.6521 13.3666 15.6521C14.7548 15.6521 15.6898 13.8691 15.6898 11.7565C15.6898 10.1507 14.6082 8.9487 12.641 8.9487C10.4184 8.9487 9.03376 10.6062 9.03376 12.4576C9.03376 13.096 9.22197 13.5461 9.51676 13.8947C9.65231 14.0549 9.67115 14.1192 9.62209 14.3031C9.58694 14.4379 9.50623 14.7625 9.4728 14.8911C9.42403 15.0767 9.27366 15.143 9.10594 15.0745C8.08223 14.6566 7.60546 13.5355 7.60546 12.2753C7.60546 10.1939 9.36084 7.69814 12.8421 7.69814C15.6395 7.69814 17.4807 9.72244 17.4807 11.8954C17.4807 14.7697 15.8827 16.917 13.5272 16.917C12.7362 16.917 11.9921 16.4894 11.7372 16.0037C11.7372 16.0037 11.3118 17.6919 11.2217 18.0179C11.0664 18.5828 10.7623 19.1474 10.4843 19.5875C11.1584 19.7868 11.8578 19.888 12.5608 19.888C16.6069 19.888 19.8876 16.6075 19.8876 12.5607C19.8876 8.51412 16.6069 5.23364 12.5608 5.23364C8.51434 5.23364 5.23358 8.51412 5.23358 12.5607Z" fill="#CB1F27"/>
</g>
<defs>
<clipPath id="clip0_1_52">
<rect width="14.6539" height="14.6539" fill="white" transform="translate(5.23358 5.23364)"/>
</clipPath>
</defs>
</svg>
